<svg xmlns="http://www.w3.org/2000/svg" version="1.0" width="544.000000pt" height="544.000000pt" viewBox="0 0 544.000000 544.000000" preserveAspectRatio="xMidYMid meet">

<g transform="translate(0.000000,544.000000) scale(0.100000,-0.100000)" fill="#051872" stroke="none">
<path d="M3349 5185 c-15 -8 -39 -34 -53 -57 -15 -24 -40 -61 -57 -83 -30 -41 -84 -118 -129 -186 -65 -97 -102 -148 -115 -159 -8 -7 -15 -17 -15 -22 0 -6 -12 -25 -27 -44 -16 -18 -44 -56 -63 -84 -19 -29 -50 -70 -67 -92 -18 -22 -33 -44 -33 -48 0 -5 -7 -15 -15 -24 -8 -8 -37 -47 -65 -87 -38 -58 -47 -76 -39 -91 19 -35 21 -33 177 125 42 43 99 100 126 125 27 26 105 102 174 169 76 75 138 127 158 133 45 15 135 -3 173 -36 16 -13 33 -24 39 -24 5 0 33 -16 61 -35 28 -19 54 -35 58 -35 5 0 30 -16 57 -35 27 -19 53 -35 58 -35 6 0 94 -55 133 -84 42 -31 62 48 24 94 -11 14 -32 43 -46 65 -14 22 -32 44 -40 49 -8 4 -21 22 -29 40 -8 17 -28 49 -45 71 -54 73 -109 149 -164 230 -120 174 -120 175 -168 175 -23 -1 -54 -7 -68 -15z" fill="#051872"/>
<path d="M2610 4971 c-8 -5 -27 -14 -42 -21 -15 -7 -30 -20 -33 -29 -4 -9 -58 -61 -122 -116 -126 -109 -170 -149 -267 -240 -34 -33 -107 -100 -161 -150 -54 -49 -130 -119 -168 -155 -100 -94 -125 -118 -206 -190 -240 -215 -274 -256 -250 -302 7 -13 66 -86 133 -163 248 -288 292 -341 307 -362 8 -12 39 -48 67 -80 62 -70 69 -78 272 -318 246 -290 241 -285 262 -274 25 13 23 49 -5 90 -12 19 -29 50 -37 69 -7 19 -21 46 -30 60 -16 24 -78 144 -115 220 -9 19 -29 58 -44 85 -31 55 -96 176 -173 325 -27 52 -74 140 -103 195 -81 151 -78 172 50 350 36 50 77 108 92 130 14 22 47 67 73 100 26 33 52 70 58 82 7 12 18 28 25 35 8 7 26 31 41 53 65 98 194 279 319 448 57 76 97 144 97 163 0 7 -24 3 -40 -5z" fill="#051872"/>
<path d="M1057 4704 c-8 -16 -17 -54 -21 -84 -4 -30 -16 -89 -26 -130 -21 -82 -31 -177 -60 -585 -22 -297 -25 -575 -10 -760 5 -66 12 -147 15 -180 3 -33 12 -154 20 -270 8 -115 24 -255 35 -310 11 -55 26 -161 34 -235 8 -75 21 -160 30 -190 8 -30 22 -95 31 -145 14 -85 55 -230 96 -340 10 -27 23 -72 29 -98 6 -27 18 -65 26 -85 9 -21 26 -66 39 -102 12 -36 33 -90 45 -120 24 -60 32 -78 170 -375 23 -49 48 -101 56 -115 9 -14 26 -48 39 -77 13 -28 29 -54 35 -58 6 -4 23 -25 38 -47 109 -163 138 -196 183 -208 51 -14 110 -3 162 30 24 15 60 33 81 40 21 7 59 25 85 40 25 15 79 48 119 72 41 23 97 57 125 75 29 18 68 41 87 53 39 23 100 66 188 133 33 25 69 50 79 56 11 5 54 38 94 71 88 72 108 88 223 182 175 144 506 484 716 738 164 198 350 450 350 474 0 4 12 22 26 40 60 73 202 301 222 355 7 19 18 42 26 50 7 9 25 39 38 66 14 28 46 93 73 145 96 192 110 226 170 422 13 43 31 91 40 107 8 17 22 59 30 94 8 35 21 83 30 106 16 47 20 127 7 135 -11 7 -81 -77 -108 -129 -44 -85 -79 -142 -119 -190 -22 -27 -53 -68 -67 -90 -14 -22 -40 -55 -58 -72 -29 -30 -38 -33 -92 -33 -52 0 -65 -4 -99 -31 -22 -17 -47 -45 -56 -63 -9 -17 -24 -42 -35 -56 -10 -14 -44 -61 -74 -105 -75 -111 -97 -142 -144 -205 -22 -30 -50 -70 -61 -87 -12 -18 -25 -33 -30 -33 -5 0 -20 -17 -33 -37 -13 -21 -74 -90 -136 -152 -61 -63 -128 -133 -148 -155 -38 -41 -228 -209 -268 -237 -11 -8 -47 -37 -80 -66 -101 -89 -204 -173 -213 -173 -5 0 -25 -13 -46 -30 -21 -16 -73 -51 -116 -77 -44 -27 -103 -62 -132 -80 -28 -18 -78 -46 -109 -62 -31 -17 -60 -35 -63 -41 -4 -6 -30 -22 -58 -36 -29 -13 -65 -32 -82 -41 -91 -52 -127 -70 -190 -96 -72 -29 -96 -29 -130 1 -25 21 -78 99 -106 155 -12 23 -29 51 -39 62 -10 11 -23 37 -29 57 -7 21 -17 40 -22 44 -5 3 -22 28 -37 55 -15 28 -41 76 -59 107 -51 91 -123 238 -123 251 0 7 -13 41 -30 76 -16 35 -30 67 -30 71 0 4 -16 42 -36 83 -20 42 -49 103 -65 136 -15 33 -31 78 -35 100 -4 22 -13 52 -20 67 -8 15 -25 78 -39 140 -13 62 -29 128 -34 147 -6 19 -17 123 -26 233 -8 109 -22 229 -29 266 -8 37 -18 96 -21 132 -10 102 -22 128 -65 150 -75 38 -79 52 -90 297 -6 120 -15 240 -20 266 -6 26 -10 101 -11 165 -1 189 -14 341 -32 359 -14 14 -17 13 -30 -13z" fill="#051872"/>
<path d="M2609 4643 c-13 -21 -48 -68 -79 -104 -49 -59 -95 -117 -210 -266 -19 -25 -57 -72 -85 -105 -27 -33 -57 -70 -65 -82 -8 -11 -41 -54 -72 -94 -69 -87 -75 -124 -32 -188 15 -21 33 -52 40 -69 8 -16 34 -61 59 -100 24 -38 53 -89 64 -111 10 -23 24 -45 30 -49 7 -4 23 -30 37 -58 13 -29 40 -77 59 -107 19 -30 46 -77 61 -105 14 -27 34 -60 43 -75 66 -98 79 -118 90 -147 7 -17 21 -39 32 -49 10 -9 19 -22 19 -28 0 -6 14 -31 30 -56 53 -78 139 -223 160 -269 11 -24 32 -57 45 -73 14 -16 25 -34 25 -39 0 -28 124 -189 146 -189 14 0 100 55 109 71 4 5 29 21 56 34 27 14 49 29 49 33 0 5 15 16 33 25 17 10 63 42 101 72 38 30 73 55 77 55 4 0 25 15 47 33 22 17 68 52 101 77 34 25 81 60 104 78 23 18 55 40 71 50 36 20 101 89 101 105 0 21 -62 19 -104 -2 -22 -12 -69 -25 -105 -30 -35 -5 -93 -18 -128 -29 -35 -11 -121 -34 -191 -51 l-129 -31 -39 20 c-21 11 -45 33 -53 48 -8 15 -23 36 -35 46 -12 11 -21 24 -21 30 0 6 -15 30 -33 53 -17 22 -40 54 -49 70 -10 15 -30 47 -45 69 -16 23 -36 53 -45 68 -10 14 -26 38 -35 52 -56 84 -73 108 -117 175 -27 41 -61 91 -75 112 -14 21 -37 55 -51 76 -14 21 -38 57 -55 81 -16 23 -43 64 -60 90 -16 26 -39 60 -50 76 -32 45 -27 142 12 224 17 36 36 82 43 102 6 21 15 40 20 43 5 3 16 29 26 58 9 28 30 76 45 106 16 30 29 61 29 69 0 14 42 109 86 195 18 37 11 47 -31 47 -28 0 -37 -6 -56 -37z" fill="#051872"/>
</g>
</svg>